
<?xml version="1.0" encoding="UTF-8"?>
<svg version="1.1" xmlns="http://www.w3.org/2000/svg" width="500" height="500">
<path d="M0 0 C6.06870229 6.13740458 6.06870229 6.13740458 8 10 C10.65322044 10.54440374 13.26125199 10.98509056 15.9375 11.375 C27.84210137 13.32113492 38.28232775 16.63256461 45.9765625 26.546875 C55.62995537 41.0885817 57.32054598 55.1676632 57.15625 72.2734375 C57.14721518 74.02265 57.13907998 75.77186732 57.13171387 77.52108765 C57.11211964 81.60832069 57.08514134 85.69543382 57.05371094 89.78259277 C56.9968876 97.2029353 56.95400738 104.62332674 56.91171837 112.04376268 C56.83070445 126.17506261 56.74030807 140.30629302 56.64453125 154.4375 C56.63571206 155.73937154 56.63571206 155.73937154 56.62671471 157.06754351 C56.57280765 165.01400608 56.51841746 172.96046531 56.46356201 180.90692139 C56.39753762 190.47459994 56.33242182 200.04228305 56.26974106 209.60998416 C56.24179668 213.8633828 56.21309792 218.11677362 56.18267822 222.37015533 C56.06291461 239.15227981 55.97180807 255.93146506 56.07421875 272.71386719 C56.08059608 273.99672041 56.08697342 275.27957363 56.09354401 276.60130119 C56.12282984 282.44472127 56.16499067 288.28724266 56.23815918 294.13027954 C56.42610339 316.28954519 53.47396467 334.94789102 37.8125 351.6875 C24.2064687 364.71798006 6.46847826 367.58233702 -11.375 370.75 C-12.79987732 371.00527969 -12.79987732 371.00527969 -14.25354004 371.26571655 C-57.74403193 379.02549206 -101.56952002 384.44993505 -145.40778923 389.80102253 C-178.22310023 393.74136151 -178.22310023 393.74136151 -210.83105469 399.09350586 C-216.45606606 400.12572747 -221.85284523 400.33167278 -227.5625 400.3125 C-229.00786133 400.33666992 -229.00786133 400.33666992 -230.48242188 400.36132812 C-241.97811262 400.36907977 -252.67483307 397.06795127 -261.11328125 388.97265625 C-265.70182528 383.8711073 -265.70182528 383.8711073 -266.74609375 380.8203125 C-267.94579241 378.63442327 -267.94579241 378.63442327 -271.16015625 378.3125 C-272.44792969 378.209375 -273.73570312 378.10625 -275.0625 378 C-286.3124055 376.86148117 -294.44561669 372.34917158 -303 365 C-311.64369071 353.91235516 -315.1524542 342.06904945 -315.14476013 328.14263916 C-315.14828698 327.38139449 -315.15181382 326.62014982 -315.15544754 325.83583713 C-315.16607105 323.29973145 -315.1698048 320.76366345 -315.17358398 318.22753906 C-315.17989551 316.40154362 -315.18666197 314.57554971 -315.19384766 312.7495575 C-315.20849563 308.81879242 -315.22023071 304.88803319 -315.22979546 300.9572525 C-315.24533963 294.70493363 -315.2692993 288.45266403 -315.29469299 282.20037842 C-315.36561764 264.42023871 -315.42513998 246.64006894 -315.47680664 228.85986328 C-315.50542317 219.03777623 -315.54098082 209.21573646 -315.58346039 199.39369941 C-315.60551955 194.21547055 -315.62416974 189.03728427 -315.63390923 183.85901642 C-315.67470156 162.90579155 -315.89457959 142.0331158 -317.30786037 121.12120438 C-319.13181573 94.09056989 -318.73371069 63.37777595 -301.1875 41 C-283.31150469 22.54424268 -257.8032751 20.61491036 -233.77111816 17.1673584 C-226.37197821 16.10585993 -218.97693699 15.01632427 -211.58203125 13.92578125 C-210.80159328 13.81088726 -210.02115532 13.69599327 -209.21706772 13.57761765 C-196.46723771 11.69783567 -183.73625866 9.71157208 -171.01171875 7.66796875 C-170.13414288 7.52706692 -169.256567 7.38616508 -168.35239792 7.2409935 C-164.80526534 6.67121682 -161.25821682 6.1009196 -157.71124458 5.53014565 C-106.9358171 -2.64009532 -106.9358171 -2.64009532 -82.8125 -5.6875 C-81.92582642 -5.80033325 -81.03915283 -5.9131665 -80.12561035 -6.02941895 C-70.38858846 -7.25552127 -60.63892839 -8.25622574 -50.86328125 -9.12109375 C-49.92321732 -9.20453537 -48.98315338 -9.28797699 -48.01460266 -9.37394714 C-30.92096003 -10.82899867 -13.93173477 -11.92599863 0 0 Z M-54.375 1.375 C-55.20222565 1.45724823 -56.02945129 1.53949646 -56.88174438 1.62423706 C-102.31995318 6.22711795 -147.53035685 13.77961006 -192.59692383 21.09057617 C-195.40959935 21.54648586 -198.22234296 22.00197236 -201.03515625 22.45703125 C-201.71798487 22.56753752 -202.40081348 22.67804379 -203.10433388 22.79189873 C-212.47293642 24.30518079 -221.85102046 25.73356812 -231.24609375 27.07421875 C-232.88737495 27.30998878 -232.88737495 27.30998878 -234.56181335 27.55052185 C-239.53359379 28.26286021 -244.50656026 28.96092512 -249.48413086 29.6315918 C-263.15427351 31.5318245 -277.05742951 33.95673169 -288 43 C-288.68449219 43.55042969 -289.36898437 44.10085937 -290.07421875 44.66796875 C-302.1073322 55.41755009 -306.13451189 72.33437747 -307.75 87.8125 C-307.86373208 89.87354724 -307.94356901 91.93658869 -308 94 C-308.02046387 94.6511377 -308.04092773 95.30227539 -308.06201172 95.97314453 C-308.31483946 105.19822276 -308.02303628 114.32351138 -307.27841187 123.52103806 C-305.71574004 143.28030198 -305.76955491 162.98765071 -305.86307526 182.79628658 C-305.88342884 187.70444487 -305.89013096 192.61262149 -305.89794922 197.52081299 C-305.91988534 209.9305843 -305.95902955 222.34027918 -306 234.75 C-306.04429745 248.20018557 -306.08532957 261.65034097 -306.10683632 275.10058522 C-306.11669184 280.90118295 -306.13623724 286.70163589 -306.16369629 292.50217581 C-306.17877235 296.12164883 -306.18527694 299.74110306 -306.1896286 303.36060333 C-306.19332327 305.01723909 -306.20042307 306.67387198 -306.21149445 308.33047485 C-306.26671779 316.87246471 -306.01751072 325.28099544 -305.09716797 333.77911377 C-304.97745982 334.89173116 -304.97745982 334.89173116 -304.85533333 336.02682567 C-303.76233245 345.16682836 -300.62404301 353.43233182 -294 360 C-287.20440177 364.9804873 -280.56967097 368.40807957 -272 368 C-272.15358569 366.73315872 -272.30717138 365.46631744 -272.46541119 364.16108704 C-273.04514391 358.92053978 -273.33443852 353.68920929 -273.55342102 348.42260742 C-273.59552147 347.42318461 -273.63762192 346.42376181 -273.68099815 345.39405346 C-274.1123421 334.34223587 -274.14823599 323.29702212 -274.14526367 312.23828125 C-274.14826591 309.96368862 -274.15167083 307.68909649 -274.15544128 305.414505 C-274.16416927 299.31381199 -274.16661437 293.21313305 -274.16725707 287.11243439 C-274.16797307 283.2894527 -274.17011748 279.46647447 -274.17275429 275.64349365 C-274.18149227 262.96171882 -274.18617867 250.27995549 -274.18542381 237.59817839 C-274.18538386 236.91915354 -274.1853439 236.2401287 -274.18530273 235.54052734 C-274.18526185 234.86065529 -274.18522097 234.18078324 -274.18517885 233.48030901 C-274.18477149 222.43736314 -274.19437369 211.39445122 -274.2084411 200.35151517 C-274.22284299 188.95453526 -274.22952672 177.55757878 -274.22884732 166.16058826 C-274.2285934 159.78490989 -274.23138745 153.40927017 -274.24202538 147.03359985 C-274.25174889 141.04484363 -274.25175652 135.05616277 -274.24450874 129.06740379 C-274.24346876 126.88060584 -274.24579065 124.69380307 -274.2518692 122.50701332 C-274.30975947 100.22569825 -273.48550346 78.69983789 -257.52734375 61.3046875 C-244.76661611 49.00297884 -229.45473961 44.91600353 -212.34375 42.5625 C-211.42654678 42.43398148 -210.50934357 42.30546295 -209.56434631 42.17304993 C-201.51071649 41.05234522 -193.44830057 40.00075541 -185.38427734 38.95800781 C-156.65143065 35.2407813 -127.95841033 31.24012709 -99.2660408 27.22443008 C-95.89470393 26.75275672 -92.52327509 26.28174558 -89.15182495 25.81088257 C-83.74609353 25.05569769 -78.34064657 24.29850658 -72.93541145 23.53977776 C-70.92848894 23.2582517 -68.92149675 22.97722178 -66.9144268 22.69674873 C-54.25443956 20.92662048 -41.61959686 19.03839456 -29 17 C-27.75922195 16.80065353 -26.51844391 16.60130707 -25.24006653 16.3959198 C-22.30374388 15.92174625 -19.37044398 15.43209083 -16.4375 14.9375 C-14.94573242 14.69676758 -14.94573242 14.69676758 -13.42382812 14.45117188 C-12.47830078 14.29068359 -11.53277344 14.13019531 -10.55859375 13.96484375 C-9.72642334 13.8268335 -8.89425293 13.68882324 -8.03686523 13.54663086 C-5.79324687 13.12635423 -5.79324687 13.12635423 -4 11 C-13.08286697 2.23839199 -22.04589844 -0.13428854 -34.44506836 -0.08984375 C-41.11561634 0.07874094 -47.73941559 0.70993989 -54.375 1.375 Z M-6.48046875 21.96875 C-7.85725061 22.20854493 -9.23404147 22.44828821 -10.61083984 22.68798828 C-11.7198465 22.88524506 -11.7198465 22.88524506 -12.85125732 23.08648682 C-16.97651332 23.816654 -21.1073151 24.51391675 -25.23828125 25.2109375 C-26.12153076 25.36005585 -27.00478027 25.50917419 -27.91479492 25.66281128 C-45.83942598 28.6674399 -63.84912361 31.14645519 -81.84304047 33.69451904 C-84.15216623 34.02155065 -86.46124551 34.34890933 -88.77032471 34.67626953 C-100.72006681 36.36971933 -112.67130702 38.05236091 -124.62332916 39.72963715 C-127.37977179 40.11688976 -130.13604509 40.50532607 -132.89227295 40.894104 C-138.21792506 41.64481442 -143.54419144 42.39102505 -148.87109375 43.1328125 C-150.17242311 43.31403499 -150.17242311 43.31403499 -151.50004196 43.49891853 C-166.79656526 45.62136842 -182.11588704 47.52889939 -197.4561615 49.30703735 C-221.96570906 51.83098261 -221.96570906 51.83098261 -244 62 C-245.051875 62.721875 -246.10375 63.44375 -247.1875 64.1875 C-263.09609701 80.09609701 -265.25285599 98.23274749 -265.25994873 119.59587097 C-265.25446682 121.77908375 -265.24878389 123.96229603 -265.24291992 126.14550781 C-265.2439944 128.47449293 -265.24593554 130.80347779 -265.24867249 133.13246155 C-265.25349857 139.42811361 -265.24589204 145.72369422 -265.23571944 152.01933765 C-265.2277923 157.95830185 -265.22855817 163.89726053 -265.22899476 169.83622906 C-265.22949416 181.61039554 -265.22036873 193.38453476 -265.20581055 205.15869141 C-265.19173856 216.54574073 -265.18463936 227.93276608 -265.18530273 239.31982422 C-265.18534269 240.0206889 -265.18538265 240.72155359 -265.18542381 241.44365659 C-265.18546417 242.14338829 -265.18550452 242.84311999 -265.1855461 243.56405568 C-265.18627401 257.23629184 -265.17926779 270.90851575 -265.1700995 284.58074856 C-265.16797728 288.49987011 -265.16725955 292.4189898 -265.16686058 296.33811188 C-265.16584881 302.5204317 -265.15968476 308.70272676 -265.14969444 314.88503838 C-265.14679752 317.14193762 -265.1455383 319.39883971 -265.14612198 321.65574074 C-265.57003066 344.54339558 -265.57003066 344.54339558 -262 367 C-252.10693793 367.71565711 -242.58642573 365.79387148 -232.88754654 364.11423302 C-227.4379276 363.17345149 -221.98232364 362.26891491 -216.52636719 361.36572266 C-215.36037302 361.17257697 -214.19437885 360.97943129 -212.99305153 360.7804327 C-198.96162696 358.4744322 -184.89324044 356.42063683 -170.8203125 354.38671875 C-170.15547317 354.29057612 -169.49063383 354.19443349 -168.80564785 354.09537745 C-160.64621247 352.91591959 -152.4856209 351.744611 -144.32454944 350.57653439 C-138.7688867 349.78088983 -133.2142078 348.9785393 -127.65973675 348.17462319 C-121.49921802 347.28318574 -115.33798393 346.3967823 -109.17644882 345.51239967 C-106.61961761 345.14493547 -104.06296055 344.77625687 -101.50650406 344.40619469 C-87.32576264 342.35608204 -73.14830689 340.4827548 -58.89734077 338.98628521 C-40.0714348 336.99708968 -21.16911955 333.35526652 -7.625 319.02734375 C2.35426686 306.5772488 5.15872381 291.10498232 5.13371277 275.58268738 C5.13597833 274.54653976 5.13824388 273.51039215 5.14057809 272.44284612 C5.14689818 268.97775516 5.14609 265.5127035 5.14526367 262.04760742 C5.1482564 259.56036834 5.15165919 257.07312973 5.15544128 254.58589172 C5.16335666 248.53487157 5.16649543 242.48386683 5.16705366 236.43284293 C5.16752954 231.51223214 5.16958785 226.59162456 5.17275429 221.67101479 C5.18155659 207.70729461 5.18617431 193.74358211 5.18542381 179.77985915 C5.18538386 179.02774733 5.1853439 178.27563551 5.18530273 177.50073242 C5.18526185 176.74769788 5.18522097 175.99466335 5.18517885 175.21880958 C5.18477247 163.01719504 5.19434106 150.81561138 5.2084411 138.61400577 C5.22281869 126.07285605 5.22971053 113.53172138 5.22884732 100.99056321 C5.22851584 93.95473159 5.23124169 86.91893233 5.24202538 79.88310814 C5.2521041 73.26505233 5.2517809 66.64705309 5.24450874 60.02898979 C5.24346375 57.60305939 5.24582072 55.17712472 5.2518692 52.75120163 C5.25960401 49.43347561 5.2549343 46.11598463 5.24723816 42.79826355 C5.2549535 41.36666713 5.2549535 41.36666713 5.26282471 39.90614957 C5.23126381 33.72699219 4.42577951 28.01114917 3 22 C-0.68025436 20.77324855 -2.66640463 21.28738051 -6.48046875 21.96875 Z M13 22 C13.00515373 23.12271805 13.01030746 24.2454361 13.01561737 25.4021759 C13.141864 52.91364061 13.26704433 80.42511003 13.39115143 107.93658447 C13.40318059 110.60209148 13.41521121 113.26759849 13.42724609 115.93310547 C13.43023671 116.59550138 13.43322732 117.25789728 13.43630856 117.94036579 C13.48134154 127.91092953 13.52690304 137.88149076 13.57275391 147.85205078 C13.62617677 159.46937924 13.67894224 171.08671049 13.73096704 182.7040453 C13.75845157 188.83660412 13.78623202 194.96916123 13.81480408 201.10171509 C13.82572082 203.45558672 13.83663093 205.80945838 13.84753418 208.16333008 C13.8528791 209.30925849 13.85822402 210.4551869 13.86373091 211.63584042 C13.88924546 217.21253696 13.91221083 222.78922292 13.92946625 228.36595154 C13.9361208 230.49494429 13.9427862 232.62393701 13.94946289 234.75292969 C13.95262276 235.78404153 13.95578263 236.81515337 13.95903826 237.87751102 C13.98005462 243.85107902 14.02357155 249.82389771 14.08912516 255.79714012 C14.12756036 259.45425037 14.15434609 263.11139495 14.17925167 266.76861954 C14.1934994 268.42717307 14.21308322 270.08569238 14.23889256 271.74410629 C14.56680219 293.02926195 10.92671954 312.69929075 -3.80078125 328.9921875 C-15.94343465 340.69281711 -33.83248502 344.91422209 -50 347.125 C-51.05316406 347.28097656 -52.10632813 347.43695313 -53.19140625 347.59765625 C-59.01950138 348.43024127 -64.83393522 349.08967703 -70.69794273 349.59459209 C-84.88015521 350.83638566 -98.93709797 352.85127631 -113.0234375 354.88671875 C-115.02184197 355.17360073 -117.02033441 355.45986427 -119.01883471 355.74607784 C-125.29576771 356.64510548 -131.57194842 357.54924947 -137.84765625 358.45678711 C-143.49951681 359.27403156 -149.15216439 360.08553066 -154.80566406 360.89135742 C-185.13604374 365.21546266 -215.42988099 369.59275154 -245.52139282 375.39167786 C-249.34128402 376.05968211 -253.14916091 376.5468581 -257 377 C-255.55898828 380.57928719 -253.85719199 382.07400774 -250.625 384.125 C-249.85414063 384.62257813 -249.08328125 385.12015625 -248.2890625 385.6328125 C-234.75989255 393.71337476 -217.64900768 389.98722632 -202.90374756 387.60955811 C-188.0813848 385.22382134 -173.21256437 383.33197919 -158.3125 381.5 C-155.85073088 381.19602641 -153.38897956 380.89190865 -150.92724609 380.58764648 C-147.30107439 380.13962229 -143.67488755 379.69172536 -140.0486145 379.24452209 C-124.86068362 377.36968717 -109.6859383 375.40612349 -94.52252197 373.3425293 C-91.82959099 372.97686043 -89.13623806 372.61439594 -86.44287109 372.25195312 C-63.90959875 369.20904132 -41.43294554 365.89734668 -19.03796387 361.95373535 C-16.87500962 361.57302007 -14.71136537 361.19620078 -12.54699707 360.8236084 C6.98286937 357.44304199 24.66679391 353.45431444 37.27734375 336.7265625 C42.86252677 327.88652226 45.13741322 319.38361455 45.19618225 309.07182312 C45.20520378 308.15922802 45.21422531 307.24663293 45.22352022 306.30638343 C45.25264583 303.24032981 45.27486031 300.17426489 45.29711914 297.1081543 C45.3165603 294.91158182 45.33642228 292.71501303 45.35667419 290.51844788 C45.41058122 284.53748661 45.45847264 278.55649044 45.50525212 272.57546973 C45.55533305 266.29318941 45.61067742 260.01095537 45.66539001 253.72871399 C45.75677864 243.14883905 45.84460509 232.56893885 45.92993164 221.98901367 C46.01719544 211.16965186 46.10715346 200.35031746 46.20043945 189.53100586 C46.20615072 188.86854926 46.21186199 188.20609266 46.21774632 187.52356162 C46.23499911 185.52282437 46.25225421 183.52208714 46.26950932 181.52134991 C46.37015136 169.84938059 46.46843243 158.17739154 46.56622386 146.50539804 C46.59736049 142.79694419 46.62875848 139.08849262 46.66017342 135.38004112 C46.76365089 123.090337 46.85935767 110.8006628 46.93652838 98.51076323 C46.97157188 93.20697624 47.02280248 87.9039219 47.09891683 82.60056585 C47.12904376 80.40853261 47.15270064 78.21654243 47.17359829 76.02440357 C47.1982056 73.5370839 47.23357726 71.04982511 47.28423405 68.56289959 C47.37721973 55.27576894 44.88467924 41.34918338 36.21875 30.83984375 C29.73235724 24.5794114 21.90135574 21.87639139 13 22 Z " fill="#E63D20" transform="translate(380,55)"/>
</svg>
